<svg width="24" height="24" viewBox="0 0 24 24" fill="none" xmlns="http://www.w3.org/2000/svg">
<g clip-path="url(#clip0_244_401)">
<path d="M16.624 13.9202L19.342 16.6362L11.989 23.9892L4.636 16.6372L7.353 13.9202L11.989 18.5802L16.624 13.9202ZM21.261 9.28421L24 12.0002L21.285 14.7162L18.568 12.0002L21.261 9.28421ZM11.989 9.28421L14.705 11.9762L11.988 14.6932L9.272 12.0002L11.989 9.28421ZM2.716 9.28421L5.41 12.0002L2.718 14.6922L0 12.0002L2.716 9.28421ZM11.99 0.012207L19.34 7.34021L16.623 10.0552L11.99 5.42021L7.354 10.0802L4.637 7.36421L11.99 0.012207Z" fill="#FF8A00"/>
</g>
<defs>
<clipPath id="clip0_244_401">
<rect width="24" height="24" fill="white"/>
</clipPath>
</defs>
</svg>
