<svg width="24" height="24" viewBox="0 0 24 24" fill="none" xmlns="http://www.w3.org/2000/svg">
<g clip-path="url(#clip0_228_626)">
<path fill-rule="evenodd" clip-rule="evenodd" d="M7.61185 16.6547C6.13697 18.0361 4.34749 19.0284 1.93256 18.9993C1.68225 18.9962 1.44338 18.8932 1.2685 18.7128C1.09362 18.5324 0.997064 18.2894 1.00007 18.0373C1.00307 17.7852 1.10539 17.5447 1.28452 17.3686C1.46364 17.1924 1.7049 17.0952 1.95521 17.0982C3.76106 17.121 5.1038 16.4075 6.32574 15.2618C7.30479 14.3443 8.15171 13.2087 9.07792 11.9667C9.35477 11.5941 9.64044 11.2114 9.93868 10.8223C11.1896 9.18999 12.6305 7.50188 14.5823 6.36887C16.5668 5.21685 19.0057 4.6795 22.1794 5.19784C22.3046 5.21445 22.4253 5.25621 22.5342 5.32064C22.6431 5.38507 22.7381 5.47086 22.8135 5.57292C22.8889 5.67499 22.9431 5.79126 22.9731 5.91484C23.003 6.03842 23.008 6.1668 22.9878 6.29237C22.9676 6.41793 22.9226 6.53814 22.8554 6.64585C22.7882 6.75357 22.7002 6.8466 22.5967 6.91945C22.4931 6.99229 22.3761 7.04346 22.2525 7.06993C22.129 7.09639 22.0014 7.09761 21.8774 7.07352C19.0963 6.62107 17.1029 7.10013 15.5236 8.01642C13.9128 8.95173 12.6594 10.3826 11.4337 11.9832C11.1757 12.3203 10.9165 12.6676 10.6535 13.0199C9.70965 14.2873 8.72682 15.6104 7.61185 16.6547Z" fill="#A258DD"/>
<path fill-rule="evenodd" clip-rule="evenodd" d="M18.2253 0.299993C18.368 0.107563 18.5613 -0.000378748 18.7627 -0.000121612C18.9642 0.000135524 19.1574 0.10857 19.2998 0.301364L22.7777 5.01893C22.92 5.21178 23 5.4732 23 5.74577C23 6.01833 22.92 6.27975 22.7777 6.4726L19.2988 11.1902C19.1563 11.3833 18.9629 11.492 18.7612 11.4922C18.5595 11.4925 18.366 11.3843 18.2233 11.1915C18.0805 10.9988 18.0002 10.7372 18 10.4643C17.9998 10.1914 18.0798 9.92964 18.2222 9.7365L21.1659 5.74577L18.2233 1.75503C18.1527 1.65943 18.0967 1.54594 18.0586 1.42106C18.0204 1.29618 18.0008 1.16235 18.0009 1.02723C18.001 0.892104 18.0208 0.758328 18.0591 0.633546C18.0974 0.508763 18.1536 0.39542 18.2243 0.299993M18.2405 12.8962C18.3873 12.7093 18.5829 12.6089 18.7844 12.6171C18.9859 12.6254 19.1768 12.7415 19.315 12.9401L22.7513 17.8771C22.8897 18.0753 22.9643 18.3398 22.9586 18.6124C22.9529 18.885 22.8674 19.1434 22.7209 19.3307L19.2835 23.7192C19.1369 23.9065 18.9412 24.0073 18.7396 23.9995C18.538 23.9916 18.347 23.8757 18.2086 23.6773C18.0701 23.4789 17.9956 23.2142 18.0014 22.9415C18.0072 22.6687 18.0928 22.4103 18.2395 22.223L21.1244 18.5394L18.208 14.3498C18.0699 14.1512 17.9957 13.8865 18.0018 13.6139C18.0079 13.3413 18.0937 13.0832 18.2405 12.8962Z" fill="#A258DD"/>
<path fill-rule="evenodd" clip-rule="evenodd" d="M6.51797 8.6739C5.28519 7.54444 3.8951 6.83759 1.98404 6.87125C1.85704 6.87338 1.73084 6.8513 1.61266 6.80628C1.49448 6.76126 1.38663 6.69418 1.29527 6.60886C1.11075 6.43656 1.00459 6.20045 1.00015 5.95247C0.997944 5.82969 1.02078 5.70769 1.06735 5.59344C1.11392 5.47919 1.18331 5.37492 1.27156 5.28659C1.44979 5.10821 1.69402 5.00558 1.95052 5.00128C4.48054 4.95765 6.33872 5.93377 7.85003 7.31506C9.03767 8.40213 10.0551 9.78715 11.0222 11.1049C11.2414 11.4041 11.4594 11.6995 11.6747 11.9887C12.8817 13.5969 14.0939 15.0318 15.6645 15.978C17.1951 16.9005 19.1358 17.3992 21.8825 16.9803C22.1359 16.9418 22.3948 17.0022 22.6022 17.1482C22.8095 17.2942 22.9484 17.5138 22.9883 17.7588C23.0281 18.0038 22.9656 18.2541 22.8146 18.4546C22.6636 18.655 22.4364 18.7893 22.183 18.8278C19.012 19.3103 16.5955 18.743 14.6419 17.565C12.727 16.4118 11.3291 14.7139 10.1093 13.0858C9.86425 12.7592 9.62698 12.4375 9.39616 12.1221C8.43547 10.8156 7.55731 9.62135 6.52055 8.6739" fill="#A258DD"/>
</g>
<defs>
<clipPath id="clip0_228_626">
<rect width="24" height="24" fill="white"/>
</clipPath>
</defs>
</svg>
