<svg width="24" height="24" viewBox="0 0 24 24" fill="none" xmlns="http://www.w3.org/2000/svg">
<path d="M4.844 11.053C3.972 11.053 3.291 11.715 3.291 12.601C3.291 13.487 3.955 14.143 4.844 14.143C5.733 14.143 6.408 13.476 6.408 12.596C6.408 11.721 5.744 11.053 4.844 11.053ZM4.85 13.505C4.353 13.505 3.99 13.119 3.99 12.601C3.99 12.078 4.347 11.692 4.844 11.692C5.346 11.692 5.71 12.084 5.71 12.602C5.71 13.119 5.346 13.505 4.85 13.505ZM6.599 11.727H7.032V14.087H7.725V11.11H6.599V11.727ZM1.547 11.692C1.911 11.692 2.2 11.916 2.309 12.25H3.043C2.91 11.537 2.321 11.053 1.553 11.053C0.681 11.053 0 11.715 0 12.601C0 13.488 0.664 14.144 1.553 14.144C2.303 14.144 2.904 13.66 3.037 12.941H2.309C2.26184 13.1046 2.16242 13.2483 2.02591 13.3502C1.8894 13.452 1.72331 13.5064 1.553 13.505C1.051 13.505 0.698 13.119 0.698 12.601C0.698 12.078 1.044 11.692 1.547 11.692ZM19.762 12.314L19.254 12.239C19.012 12.204 18.839 12.124 18.839 11.934C18.839 11.727 19.064 11.624 19.369 11.624C19.705 11.624 19.919 11.767 19.964 12.003H20.634C20.559 11.404 20.097 11.053 19.387 11.053C18.654 11.053 18.169 11.428 18.169 11.957C18.169 12.463 18.486 12.757 19.127 12.849L19.635 12.924C19.884 12.958 20.022 13.056 20.022 13.24C20.022 13.476 19.78 13.574 19.445 13.574C19.035 13.574 18.804 13.407 18.769 13.154H18.088C18.152 13.735 18.608 14.144 19.438 14.144C20.195 14.144 20.698 13.798 20.698 13.206C20.698 12.676 20.334 12.4 19.762 12.314ZM7.378 9.88496C7.31973 9.88291 7.26166 9.89276 7.20733 9.9139C7.153 9.93505 7.10354 9.96705 7.06199 10.0079C7.02044 10.0488 6.98766 10.0978 6.96565 10.1518C6.94365 10.2058 6.93288 10.2637 6.934 10.322C6.934 10.576 7.124 10.76 7.378 10.76C7.43643 10.7622 7.4947 10.7524 7.54922 10.7312C7.60374 10.7101 7.65336 10.678 7.69504 10.637C7.73671 10.596 7.76956 10.5469 7.79156 10.4927C7.81357 10.4385 7.82427 10.3804 7.823 10.322C7.82413 10.2636 7.81333 10.2056 7.79126 10.1515C7.7692 10.0975 7.73633 10.0485 7.69467 10.0076C7.65301 9.96666 7.60343 9.93468 7.54898 9.9136C7.49453 9.89251 7.43635 9.88277 7.378 9.88496ZM17.545 12.13C17.545 11.485 17.153 11.054 16.321 11.054C15.536 11.054 15.097 11.451 15.011 12.061H15.698C15.733 11.825 15.918 11.629 16.31 11.629C16.662 11.629 16.835 11.784 16.835 11.974C16.835 12.222 16.518 12.285 16.125 12.325C15.594 12.383 14.935 12.567 14.935 13.258C14.935 13.793 15.335 14.138 15.969 14.138C16.466 14.138 16.778 13.931 16.934 13.603C16.957 13.896 17.176 14.086 17.482 14.086H17.886V13.47H17.546L17.545 12.13ZM16.865 12.878C16.865 13.275 16.518 13.568 16.096 13.568C15.836 13.568 15.616 13.458 15.616 13.228C15.616 12.935 15.969 12.855 16.292 12.82C16.604 12.792 16.777 12.723 16.864 12.59L16.865 12.878ZM13.186 11.053C12.8 11.053 12.476 11.215 12.246 11.485V9.85596H11.553V14.086H12.233V13.695C12.465 13.977 12.793 14.144 13.186 14.144C14.018 14.144 14.647 13.488 14.647 12.601C14.647 11.715 14.007 11.053 13.187 11.053H13.186ZM13.083 13.505C12.586 13.505 12.223 13.119 12.223 12.601C12.223 12.084 12.592 11.692 13.088 11.692C13.591 11.692 13.943 12.078 13.943 12.602C13.943 13.119 13.579 13.505 13.083 13.505ZM9.896 11.053C9.446 11.053 9.151 11.237 8.977 11.496V11.111H8.29V14.086H8.983V12.469C8.983 12.014 9.272 11.692 9.699 11.692C10.097 11.692 10.346 11.974 10.346 12.382V14.086H11.038V12.331C11.038 11.583 10.652 11.053 9.896 11.053ZM24 12.503C24 11.652 23.376 11.053 22.54 11.053C21.65 11.053 20.998 11.721 20.998 12.601C20.998 13.528 21.696 14.144 22.551 14.144C23.273 14.144 23.838 13.718 23.983 13.114H23.261C23.157 13.378 22.903 13.528 22.562 13.528C22.117 13.528 21.782 13.252 21.708 12.768H24V12.503ZM21.748 12.273C21.858 11.859 22.17 11.658 22.528 11.658C22.92 11.658 23.221 11.882 23.29 12.273H21.748Z" fill="#6658FF"/>
</svg>
