<svg width="24" height="24" viewBox="0 0 24 24" fill="none" xmlns="http://www.w3.org/2000/svg">
<path d="M18.8008 4H5.2008C5.00507 4.00275 4.81446 4.06288 4.65258 4.17294C4.49071 4.283 4.3647 4.43815 4.29017 4.61915C4.21564 4.80015 4.19587 4.99905 4.23331 5.19118C4.27075 5.38331 4.36376 5.56023 4.5008 5.7L9.8008 11.7L10.0008 12.4V17.2C10.0008 17.4 10.0008 17.6 10.2008 17.6L13.2008 19.9C13.5008 20.1 14.0008 19.9 14.0008 19.5V12.4C14.0008 12.1 14.0008 11.9 14.2008 11.7L19.5008 5.7C19.6378 5.56023 19.7308 5.38331 19.7683 5.19118C19.8057 4.99905 19.786 4.80015 19.7114 4.61915C19.6369 4.43815 19.5109 4.283 19.349 4.17294C19.1871 4.06288 18.9965 4.00275 18.8008 4Z" stroke="white" stroke-width="2" stroke-linecap="round"/>
</svg>
