<svg width="26" height="26" viewBox="0 0 26 26" fill="none" xmlns="http://www.w3.org/2000/svg">
<path d="M4.87256 4.06251C4.87256 3.84702 4.78696 3.64036 4.63459 3.48799C4.48221 3.33561 4.27555 3.25001 4.06006 3.25001C3.84457 3.25001 3.63791 3.33561 3.48554 3.48799C3.33317 3.64036 3.24756 3.84702 3.24756 4.06251V21.9375C3.24756 22.153 3.33317 22.3597 3.48554 22.512C3.63791 22.6644 3.84457 22.75 4.06006 22.75C4.27555 22.75 4.48221 22.6644 4.63459 22.512C4.78696 22.3597 4.87256 22.153 4.87256 21.9375V4.06251ZM22.75 5.28451C22.75 3.65789 20.9333 2.69101 19.5837 3.6002L8.20625 11.2637C7.93135 11.449 7.70599 11.6988 7.54985 11.9913C7.39371 12.2838 7.31153 12.61 7.31049 12.9416C7.30945 13.2731 7.38957 13.5998 7.54387 13.8933C7.69817 14.1867 7.92196 14.438 8.19569 14.625L19.5731 22.3925C20.9219 23.3123 22.75 22.347 22.75 20.7147V5.28451Z" fill="#D5D5D5"/>
</svg>
