<svg width="19" height="19" viewBox="0 0 19 19" fill="none" xmlns="http://www.w3.org/2000/svg">
<path d="M9.49273 1.58331C5.12273 1.58331 1.58398 5.12998 1.58398 9.49998C1.58398 13.87 5.12273 17.4166 9.49273 17.4166C13.8707 17.4166 17.4173 13.87 17.4173 9.49998C17.4173 5.12998 13.8707 1.58331 9.49273 1.58331ZM6.72982 6.33331C7.3869 6.33331 7.91732 6.86373 7.91732 7.52081C7.91732 8.1779 7.3869 8.70831 6.72982 8.70831C6.07273 8.70831 5.54232 8.1779 5.54232 7.52081C5.54232 6.86373 6.07273 6.33331 6.72982 6.33331ZM9.50065 14.25C7.69565 14.25 6.15982 12.9358 5.54232 11.0833H13.459C12.8415 12.9358 11.3057 14.25 9.50065 14.25ZM12.2715 8.70831C11.6144 8.70831 11.084 8.1779 11.084 7.52081C11.084 6.86373 11.6144 6.33331 12.2715 6.33331C12.9286 6.33331 13.459 6.86373 13.459 7.52081C13.459 8.1779 12.9286 8.70831 12.2715 8.70831Z" fill="white"/>
</svg>
