<svg width="24" height="24" viewBox="0 0 24 24" fill="none" xmlns="http://www.w3.org/2000/svg">
<path d="M21.0002 21L16.6572 16.657M16.6572 16.657C17.4001 15.9141 17.9894 15.0322 18.3914 14.0615C18.7935 13.0909 19.0004 12.0506 19.0004 11C19.0004 9.94939 18.7935 8.90908 18.3914 7.93845C17.9894 6.96782 17.4001 6.08588 16.6572 5.34299C15.9143 4.6001 15.0324 4.01081 14.0618 3.60877C13.0911 3.20672 12.0508 2.99979 11.0002 2.99979C9.9496 2.99979 8.90929 3.20672 7.93866 3.60877C6.96803 4.01081 6.08609 4.6001 5.34321 5.34299C3.84288 6.84332 3 8.87821 3 11C3 13.1218 3.84288 15.1567 5.34321 16.657C6.84354 18.1573 8.87842 19.0002 11.0002 19.0002C13.122 19.0002 15.1569 18.1573 16.6572 16.657Z" stroke="white" stroke-width="2.5" stroke-linecap="round" stroke-linejoin="round"/>
</svg>
