<svg width="41" height="41" viewBox="0 0 41 41" fill="none" xmlns="http://www.w3.org/2000/svg">
<path fill-rule="evenodd" clip-rule="evenodd" d="M13.6667 11.9583C13.6667 10.146 14.3866 8.40794 15.6681 7.12644C16.9496 5.84494 18.6877 5.125 20.5 5.125C22.3123 5.125 24.0504 5.84494 25.3319 7.12644C26.6134 8.40794 27.3333 10.146 27.3333 11.9583C27.3333 13.7706 26.6134 15.5087 25.3319 16.7902C24.0504 18.0717 22.3123 18.7917 20.5 18.7917C18.6877 18.7917 16.9496 18.0717 15.6681 16.7902C14.3866 15.5087 13.6667 13.7706 13.6667 11.9583ZM13.6667 22.2083C11.4013 22.2083 9.22867 23.1083 7.6268 24.7101C6.02492 26.312 5.125 28.4846 5.125 30.75C5.125 32.1092 5.66495 33.4128 6.62608 34.3739C7.5872 35.335 8.89077 35.875 10.25 35.875H30.75C32.1092 35.875 33.4128 35.335 34.3739 34.3739C35.335 33.4128 35.875 32.1092 35.875 30.75C35.875 28.4846 34.9751 26.312 33.3732 24.7101C31.7713 23.1083 29.5987 22.2083 27.3333 22.2083H13.6667Z" fill="white"/>
</svg>
