<svg width="35" height="35" viewBox="0 0 35 35" fill="none" xmlns="http://www.w3.org/2000/svg">
<path d="M29.166 16.0417C29.166 8.79301 23.2897 2.91666 16.041 2.91666C8.79237 2.91666 2.91602 8.79301 2.91602 16.0417C2.91602 23.2903 8.79237 29.1667 16.041 29.1667" stroke="white" stroke-width="3" stroke-linecap="round" stroke-linejoin="round"/>
<path d="M24.3755 24.7207C24.8453 25.2531 25.5259 25.5665 26.25 25.5665C26.9741 25.5665 27.6547 25.2531 28.1245 24.7207C28.1097 25.2929 27.7913 26.0563 27.1066 26.8622C26.819 27.2007 26.5212 27.4824 26.2501 27.7049C25.9788 27.4823 25.6809 27.2005 25.3933 26.862C24.7087 26.0565 24.3902 25.2932 24.3755 24.7207Z" stroke="white" stroke-width="5" stroke-linecap="round" stroke-linejoin="round"/>
<path d="M16.0404 19.6875C17.0073 19.6875 17.9346 19.3034 18.6184 18.6196C19.3021 17.9359 19.6862 17.0086 19.6862 16.0416C19.6862 15.0747 19.3021 14.1474 18.6184 13.4637C17.9346 12.7799 17.0073 12.3958 16.0404 12.3958C15.0734 12.3958 14.1461 12.7799 13.4624 13.4637C12.7786 14.1474 12.3945 15.0747 12.3945 16.0416C12.3945 17.0086 12.7786 17.9359 13.4624 18.6196C14.1461 19.3034 15.0734 19.6875 16.0404 19.6875Z" stroke="white" stroke-width="2.5"/>
</svg>
