<svg width="30" height="30" viewBox="0 0 30 30" fill="none" xmlns="http://www.w3.org/2000/svg">
<path d="M28.125 15C28.1258 15.3183 28.0442 15.6314 27.8881 15.9088C27.732 16.1862 27.5068 16.4186 27.2344 16.5832L10.35 26.9121C10.0653 27.0864 9.7393 27.1816 9.40556 27.1877C9.07182 27.1939 8.74249 27.1109 8.45156 26.9472C8.16341 26.7861 7.92337 26.5512 7.75613 26.2665C7.58889 25.9819 7.50048 25.6578 7.5 25.3277V4.67224C7.50048 4.34211 7.58889 4.01806 7.75613 3.73342C7.92337 3.44878 8.16341 3.21382 8.45156 3.05271C8.74249 2.88905 9.07182 2.80603 9.40556 2.81221C9.7393 2.81839 10.0653 2.91355 10.35 3.08787L27.2344 13.4168C27.5068 13.5814 27.732 13.8137 27.8881 14.0911C28.0442 14.3686 28.1258 14.6817 28.125 15Z" fill="white"/>
</svg>
