<svg width="32" height="32" viewBox="0 0 32 32" fill="none" xmlns="http://www.w3.org/2000/svg">
<path d="M15.4994 28.9642C19.0704 28.9642 22.4951 27.5457 25.0201 25.0206C27.5452 22.4956 28.9637 19.0709 28.9637 15.4999C28.9637 11.929 27.5452 8.50429 25.0201 5.97924C22.4951 3.4542 19.0704 2.03564 15.4994 2.03564C11.9285 2.03564 8.5038 3.4542 5.97875 5.97924C3.45371 8.50429 2.03516 11.929 2.03516 15.4999C2.03516 19.0709 3.45371 22.4956 5.97875 25.0206C8.5038 27.5457 11.9285 28.9642 15.4994 28.9642Z" stroke="white" stroke-width="2.5" stroke-linecap="round" stroke-linejoin="round"/>
<path d="M19.0251 11.8169C18.835 11.2779 18.4822 10.8112 18.0154 10.4813C17.5486 10.1514 16.9909 9.97467 16.4193 9.97545H14.2816C13.6729 9.97445 13.0854 10.1987 12.6322 10.6049C12.179 11.0112 11.8921 11.5708 11.8267 12.1759C11.7614 12.781 11.9223 13.3889 12.2784 13.8826C12.6345 14.3762 13.1606 14.7206 13.7554 14.8495L17.0096 15.5621C17.6749 15.7081 18.2629 16.0946 18.6606 16.6476C19.0584 17.2005 19.2379 17.8809 19.1647 18.5581C19.0915 19.2353 18.7708 19.8616 18.2641 20.3168C17.7574 20.772 17.1004 21.024 16.4193 21.0244H14.5798C14.0081 21.0245 13.4505 20.8472 12.9838 20.517C12.5171 20.1868 12.1643 19.72 11.974 19.1809M15.4996 9.97545V7.21423M15.4996 23.7857V21.0224" stroke="white" stroke-width="2.5" stroke-linecap="round" stroke-linejoin="round"/>
</svg>
