<svg width="28" height="26" viewBox="0 0 28 26" fill="none" xmlns="http://www.w3.org/2000/svg">
<g clip-path="url(#clip0_244_388)">
<path d="M27.3514 0L15.3369 8.80523L17.5711 3.61606L27.3514 0Z" fill="#E17726"/>
<path d="M0.677086 0.0102539L10.4313 3.61656L12.5527 8.87376L0.677086 0.0102539ZM22.5159 18.7261L27.8261 18.8262L25.9703 25.0708L19.4906 23.3038L22.5159 18.7261ZM5.4839 18.7261L8.49794 23.3038L2.02918 25.0709L0.18457 18.8262L5.4839 18.7261Z" fill="#E27625"/>
<path d="M12.264 7.53498L12.481 14.4773L5.9873 14.1847L7.83443 11.4246L7.85784 11.398L12.264 7.53498ZM15.6681 7.45752L20.1415 11.3983L20.1647 11.4247L22.0118 14.1848L15.5196 14.4773L15.6681 7.45752ZM8.68788 18.7466L12.2336 21.483L8.11476 23.4526L8.68788 18.7466ZM19.3121 18.7462L19.8733 23.4527L15.766 21.4828L19.3121 18.7462Z" fill="#E27625"/>
<path d="M15.8571 21.2251L20.0251 23.2241L16.1481 25.049L16.1883 23.8429L15.8571 21.2251ZM12.142 21.226L11.8238 23.8231L11.85 25.0476L7.96387 23.2241L12.142 21.226Z" fill="#D5BFB2"/>
<path d="M10.9383 15.3833L12.0275 17.6505L8.31934 16.5745L10.9383 15.3833ZM17.0617 15.3835L19.693 16.5745L15.9727 17.6502L17.0617 15.3835Z" fill="#233447"/>
<path d="M8.97123 18.7234L8.37185 23.6027L5.15918 18.8301L8.97123 18.7234ZM19.0283 18.7235L22.8404 18.8301L19.6157 23.6029L19.0283 18.7235ZM22.1056 13.9087L19.3313 16.7092L17.1923 15.741L16.1682 17.8735L15.4969 14.2065L22.1056 13.9087ZM5.89221 13.9087L12.5023 14.2065L11.8308 17.8735L10.8065 15.7414L8.67887 16.7093L5.89221 13.9087Z" fill="#CC6228"/>
<path d="M5.70605 13.3338L8.8449 16.4885L8.95362 19.603L5.70605 13.3338ZM22.2979 13.3281L19.0444 19.6085L19.1669 16.4885L22.2979 13.3281ZM12.3496 13.5259L12.4759 14.3135L12.7881 16.2756L12.5874 22.3016L11.6386 17.4607L11.6382 17.4107L12.3496 13.5259ZM15.6496 13.515L16.3628 17.4107L16.3625 17.4607L15.4112 22.3137L15.3736 21.0999L15.2252 16.2398L15.6496 13.515Z" fill="#E27525"/>
<path d="M19.446 16.3633L19.3398 19.0692L16.0286 21.6245L15.3593 21.1561L16.1096 17.3281L19.446 16.3633ZM8.56641 16.3633L11.8913 17.3281L12.6416 21.1561L11.9722 21.6245L8.66091 19.069L8.56641 16.3633Z" fill="#F5841F"/>
<path d="M7.33008 22.6265L11.5664 24.6146L11.5485 23.7656L11.9029 23.4574H16.0957L16.463 23.7645L16.4359 24.6129L20.6454 22.6314L18.597 24.308L16.1202 25.9929H11.8689L9.39377 24.3011L7.33008 22.6265Z" fill="#C0AC9D"/>
<path d="M15.5537 20.9604L16.1526 21.3796L16.5036 24.1534L15.9957 23.7286H12.0061L11.5078 24.1619L11.8473 21.3798L12.4465 20.9604H15.5537Z" fill="#161616"/>
<path d="M26.5578 0.243652L28 4.52899L27.0993 8.862L27.7407 9.35199L26.8728 10.0078L27.5251 10.5068L26.6614 11.2859L27.1916 11.6662L25.7844 13.294L20.0127 11.6295L19.9627 11.6029L15.8035 8.12783L26.5578 0.243652ZM1.44222 0.243652L12.1966 8.12783L8.03731 11.6029L7.98733 11.6295L2.21561 13.294L0.808391 11.6662L1.3382 11.2862L0.475016 10.5068L1.12602 10.0084L0.245109 9.35069L0.910656 8.86038L0 4.52921L1.44222 0.243652Z" fill="#763E1A"/>
<path d="M19.7307 11.2654L25.8462 13.0289L27.833 19.0941H22.5913L18.9797 19.1391L21.6063 14.0683L19.7307 11.2654ZM8.26995 11.2654L6.39405 14.0683L9.02091 19.1391L5.41099 19.0941H0.178711L2.15435 13.029L8.26995 11.2654ZM17.8704 3.58691L16.1599 8.16281L15.7969 14.3443L15.658 16.2818L15.647 21.2314H12.3536L12.3429 16.2912L12.2035 14.3427L11.8404 8.16281L10.1301 3.58691H17.8704Z" fill="#F5841F"/>
</g>
<defs>
<clipPath id="clip0_244_388">
<rect width="28" height="26" fill="white"/>
</clipPath>
</defs>
</svg>
