<svg width="21" height="21" viewBox="0 0 21 21" fill="none" xmlns="http://www.w3.org/2000/svg">
<path d="M15.9818 4.03182C14.0499 2.09999 10.904 2.09999 8.97424 4.03182L3.6217 9.38026C3.58684 9.41512 3.56838 9.46229 3.56838 9.51151C3.56838 9.56073 3.58684 9.6079 3.6217 9.64276L4.37844 10.3995C4.41303 10.4339 4.45985 10.4533 4.50866 10.4533C4.55747 10.4533 4.6043 10.4339 4.63889 10.3995L9.99143 5.05106C10.6559 4.38661 11.5398 4.02157 12.479 4.02157C13.4183 4.02157 14.3022 4.38661 14.9646 5.05106C15.629 5.71551 15.9941 6.5994 15.9941 7.53661C15.9941 8.47587 15.629 9.3577 14.9646 10.0222L9.50949 15.4752L8.62561 16.3591C7.79914 17.1855 6.45588 17.1855 5.62941 16.3591C5.22951 15.9592 5.01008 15.428 5.01008 14.862C5.01008 14.296 5.22951 13.7648 5.62941 13.3649L11.0414 7.95497C11.1788 7.81962 11.3593 7.74374 11.5521 7.74374H11.5541C11.7469 7.74374 11.9253 7.81962 12.0607 7.95497C12.1981 8.09237 12.2719 8.27284 12.2719 8.46561C12.2719 8.65633 12.196 8.8368 12.0607 8.97216L7.63713 13.3916C7.60226 13.4265 7.58381 13.4736 7.58381 13.5228C7.58381 13.5721 7.60226 13.6192 7.63713 13.6541L8.39387 14.4108C8.42846 14.4453 8.47528 14.4646 8.52409 14.4646C8.5729 14.4646 8.61973 14.4453 8.65432 14.4108L13.0758 9.98934C13.4839 9.58124 13.7074 9.03983 13.7074 8.46356C13.7074 7.88729 13.4819 7.34383 13.0758 6.93778C12.2329 6.09491 10.863 6.09696 10.0201 6.93778L9.49514 7.46483L4.61018 12.3477C4.27863 12.6773 4.01581 13.0695 3.83698 13.5014C3.65815 13.9334 3.56685 14.3965 3.56838 14.864C3.56838 15.8136 3.93957 16.7057 4.61018 17.3763C5.30539 18.0694 6.21594 18.416 7.12648 18.416C8.03703 18.416 8.94758 18.0694 9.64074 17.3763L15.9818 11.0393C16.9149 10.1042 17.4317 8.85936 17.4317 7.53661C17.4337 6.2118 16.9169 4.96698 15.9818 4.03182Z" fill="white"/>
</svg>
