<svg width="32" height="34" viewBox="0 0 32 34" fill="none" xmlns="http://www.w3.org/2000/svg">
<path d="M18.6673 14.2V11.9333C19.4007 11.6222 20.1509 11.3889 20.918 11.2333C21.6851 11.0778 22.4904 11 23.334 11C23.9118 11 24.4784 11.0445 25.034 11.1333C25.5895 11.2222 26.134 11.3333 26.6673 11.4667V13.6C26.134 13.4 25.5949 13.2502 25.05 13.1507C24.5051 13.0511 23.9331 13.0009 23.334 13C22.4895 13 21.6784 13.1058 20.9007 13.3173C20.1229 13.5289 19.3784 13.8231 18.6673 14.2ZM18.6673 21.5333V19.2667C19.4007 18.9556 20.1509 18.7222 20.918 18.5667C21.6851 18.4111 22.4904 18.3333 23.334 18.3333C23.9118 18.3333 24.4784 18.3778 25.034 18.4667C25.5895 18.5556 26.134 18.6667 26.6673 18.8V20.9333C26.134 20.7333 25.5949 20.5831 25.05 20.4827C24.5051 20.3822 23.9331 20.3325 23.334 20.3333C22.4895 20.3333 21.6784 20.4333 20.9007 20.6333C20.1229 20.8333 19.3784 21.1333 18.6673 21.5333ZM18.6673 17.8667V15.6C19.4007 15.2889 20.1509 15.0556 20.918 14.9C21.6851 14.7445 22.4904 14.6667 23.334 14.6667C23.9118 14.6667 24.4784 14.7111 25.034 14.8C25.5895 14.8889 26.134 15 26.6673 15.1333V17.2667C26.134 17.0667 25.5949 16.9165 25.05 16.816C24.5051 16.7156 23.9331 16.6658 23.334 16.6667C22.4895 16.6667 21.6784 16.7725 20.9007 16.984C20.1229 17.1956 19.3784 17.4898 18.6673 17.8667ZM8.66732 22.3333C9.71176 22.3333 10.7287 22.4502 11.718 22.684C12.7073 22.9178 13.6904 23.2676 14.6673 23.7333V10.6C13.7562 10.0667 12.7895 9.66668 11.7673 9.40001C10.7451 9.13334 9.71176 9.00001 8.66732 9.00001C7.86732 9.00001 7.07265 9.07779 6.28332 9.23334C5.49398 9.3889 4.7331 9.62223 4.00065 9.93334V23.1333C4.77843 22.8667 5.55087 22.6667 6.31798 22.5333C7.08509 22.4 7.86821 22.3333 8.66732 22.3333ZM17.334 23.7333C18.3118 23.2667 19.2953 22.9169 20.2847 22.684C21.274 22.4511 22.2904 22.3342 23.334 22.3333C24.134 22.3333 24.9175 22.4 25.6847 22.5333C26.4518 22.6667 27.2238 22.8667 28.0006 23.1333V9.93334C27.2673 9.62223 26.506 9.3889 25.7167 9.23334C24.9273 9.07779 24.1331 9.00001 23.334 9.00001C22.2895 9.00001 21.2562 9.13334 20.234 9.40001C19.2118 9.66668 18.2451 10.0667 17.334 10.6V23.7333ZM16.0007 27.6667C14.934 26.8222 13.7784 26.1667 12.534 25.7C11.2895 25.2333 10.0007 25 8.66732 25C7.73398 25 6.81754 25.1222 5.91798 25.3667C5.01843 25.6111 4.1571 25.9556 3.33398 26.4C2.86732 26.6445 2.41754 26.6333 1.98465 26.3667C1.55176 26.1 1.33487 25.7111 1.33398 25.2V9.13334C1.33398 8.8889 1.39532 8.65557 1.51798 8.43334C1.64065 8.21112 1.82376 8.04445 2.06732 7.93334C3.08954 7.40001 4.15621 7.00001 5.26732 6.73334C6.37843 6.46668 7.51176 6.33334 8.66732 6.33334C9.95621 6.33334 11.2175 6.50001 12.4513 6.83334C13.6851 7.16668 14.8682 7.66668 16.0007 8.33334C17.134 7.66668 18.3175 7.16668 19.5513 6.83334C20.7851 6.50001 22.046 6.33334 23.334 6.33334C24.4895 6.33334 25.6229 6.46668 26.734 6.73334C27.8451 7.00001 28.9118 7.40001 29.934 7.93334C30.1784 8.04445 30.362 8.21112 30.4846 8.43334C30.6073 8.65557 30.6682 8.8889 30.6673 9.13334V25.2C30.6673 25.7111 30.4509 26.1 30.018 26.3667C29.5851 26.6333 29.1349 26.6445 28.6673 26.4C27.8451 25.9556 26.9842 25.6111 26.0847 25.3667C25.1851 25.1222 24.2682 25 23.334 25C22.0007 25 20.7118 25.2333 19.4673 25.7C18.2229 26.1667 17.0673 26.8222 16.0007 27.6667Z" fill="white"/>
</svg>
