<svg width="21" height="18" viewBox="0 0 21 18" fill="none" xmlns="http://www.w3.org/2000/svg">
<path d="M15.0259 0C13.2074 0 11.5934 0.713683 10.5 1.94035C9.40655 0.713683 7.79263 0 5.97414 0C4.39029 0.00190534 2.87185 0.628322 1.7519 1.74185C0.631948 2.85538 0.00191634 4.36509 0 5.93986C0 12.4503 9.57763 17.6522 9.98496 17.8709C10.1432 17.9556 10.3202 18 10.5 18C10.6798 18 10.8568 17.9556 11.015 17.8709C11.4224 17.6522 21 12.4503 21 5.93986C20.9981 4.36509 20.3681 2.85538 19.2481 1.74185C18.1281 0.628322 16.6097 0.00190534 15.0259 0ZM14.5289 12.8121C13.2683 13.8757 11.9206 14.833 10.5 15.674C9.07938 14.833 7.73174 13.8757 6.47108 12.8121C4.50957 11.139 2.17241 8.58759 2.17241 5.93986C2.17241 4.93736 2.57295 3.97593 3.28591 3.26706C3.99887 2.55819 4.96586 2.15995 5.97414 2.15995C7.58534 2.15995 8.93405 3.00593 9.49435 4.3685C9.5759 4.56713 9.71511 4.73711 9.89422 4.85676C10.0733 4.97641 10.2842 5.04031 10.5 5.04031C10.7158 5.04031 10.9267 4.97641 11.1058 4.85676C11.2849 4.73711 11.4241 4.56713 11.5056 4.3685C12.0659 3.00593 13.4147 2.15995 15.0259 2.15995C16.0341 2.15995 17.0011 2.55819 17.7141 3.26706C18.427 3.97593 18.8276 4.93736 18.8276 5.93986C18.8276 8.58759 16.4904 11.139 14.5289 12.8121Z" fill="white"/>
</svg>
